<svg xmlns="http://www.w3.org/2000/svg" xmlns:xlink="http://www.w3.org/1999/xlink" width="500" zoomAndPan="magnify" viewBox="0 0 375 374.999991" height="500" preserveAspectRatio="xMidYMid meet" version="1.0"><defs><g/></defs><g fill="#00b32a" fill-opacity="1"><g transform="translate(8.766334, 310.765293)"><g><path d="M 174.0625 -71.625 L 174.0625 0 L 132.875 0 C 116.632812 0 101.234375 -3.101562 86.671875 -9.3125 C 72.109375 -15.519531 59.210938 -24.289062 47.984375 -35.625 C 36.765625 -46.96875 27.929688 -60.21875 21.484375 -75.375 C 15.035156 -90.539062 11.8125 -107.078125 11.8125 -124.984375 C 11.8125 -143.128906 15.035156 -159.84375 21.484375 -175.125 C 27.929688 -190.40625 36.765625 -203.71875 47.984375 -215.0625 C 59.210938 -226.40625 72.109375 -235.179688 86.671875 -241.390625 C 101.234375 -247.597656 116.632812 -250.703125 132.875 -250.703125 L 174.0625 -250.703125 L 174.0625 -179.078125 L 150.78125 -179.078125 C 140.03125 -179.078125 130.296875 -176.863281 121.578125 -172.4375 C 112.867188 -168.019531 105.890625 -161.8125 100.640625 -153.8125 C 95.390625 -145.820312 92.765625 -136.210938 92.765625 -124.984375 C 92.765625 -114.242188 95.390625 -104.875 100.640625 -96.875 C 105.890625 -88.875 112.867188 -82.664062 121.578125 -78.25 C 130.296875 -73.832031 140.03125 -71.625 150.78125 -71.625 Z M 174.0625 -71.625 "/></g></g></g><g fill="#ff0003" fill-opacity="1"><g transform="translate(366.224452, 64.228802)"><g><path d="M -174.0625 71.625 L -174.0625 0 L -132.875 0 C -116.632812 0 -101.234375 3.101562 -86.671875 9.3125 C -72.109375 15.519531 -59.210938 24.289062 -47.984375 35.625 C -36.765625 46.96875 -27.929688 60.21875 -21.484375 75.375 C -15.035156 90.539062 -11.8125 107.078125 -11.8125 124.984375 C -11.8125 143.128906 -15.035156 159.84375 -21.484375 175.125 C -27.929688 190.40625 -36.765625 203.71875 -47.984375 215.0625 C -59.210938 226.40625 -72.109375 235.179688 -86.671875 241.390625 C -101.234375 247.597656 -116.632812 250.703125 -132.875 250.703125 L -174.0625 250.703125 L -174.0625 179.078125 L -150.78125 179.078125 C -140.03125 179.078125 -130.296875 176.863281 -121.578125 172.4375 C -112.867188 168.019531 -105.890625 161.8125 -100.640625 153.8125 C -95.390625 145.820312 -92.765625 136.210938 -92.765625 124.984375 C -92.765625 114.242188 -95.390625 104.875 -100.640625 96.875 C -105.890625 88.875 -112.867188 82.664062 -121.578125 78.25 C -130.296875 73.832031 -140.03125 71.625 -150.78125 71.625 Z M -174.0625 71.625 "/></g></g></g></svg>